<svg xmlns="http://www.w3.org/2000/svg" xmlns:xlink="http://www.w3.org/1999/xlink" width="208.429" height="208.428" viewBox="0 0 208.429 208.428">
  <defs>
    <filter id="Oval" x="0" y="0" width="208.429" height="208.428" filterUnits="userSpaceOnUse">
      <feOffset dy="3" input="SourceAlpha"/>
      <feGaussianBlur stdDeviation="3" result="blur"/>
      <feFlood flood-opacity="0.161"/>
      <feComposite operator="in" in2="blur"/>
      <feComposite in="SourceGraphic"/>
    </filter>
  </defs>
  <g id="Android" transform="translate(9 6)">
    <g transform="matrix(1, 0, 0, 1, -9, -6)" filter="url(#Oval)">
      <ellipse id="Oval-2" data-name="Oval" cx="95.214" cy="95.214" rx="95.214" ry="95.214" transform="translate(9 6)" fill="#8dc33d"/>
    </g>
    <path id="Android-2" data-name="Android" d="M42.442,83.008h-.2a4.877,4.877,0,0,1-4.783-4.955V66.414H30.9V78.053a4.878,4.878,0,0,1-4.786,4.955h-.2a4.874,4.874,0,0,1-4.777-4.955V66.414H16.44a4.472,4.472,0,0,1-4.39-4.54V27.857H56.307V61.874a4.471,4.471,0,0,1-4.388,4.54h-4.7V78.053A4.876,4.876,0,0,1,42.442,83.008Zm21.14-24.5h-.2A4.876,4.876,0,0,1,58.6,53.558V32.014a4.873,4.873,0,0,1,4.783-4.948h.2a4.872,4.872,0,0,1,4.781,4.948V53.558A4.873,4.873,0,0,1,63.582,58.51Zm-58.6,0H4.777A4.873,4.873,0,0,1,0,53.558V32.014a4.87,4.87,0,0,1,4.777-4.948h.207a4.878,4.878,0,0,1,4.781,4.948V53.558A4.874,4.874,0,0,1,4.986,58.51ZM56.4,25.8H11.968c-.046-.5-.066-.928-.066-1.345a18.16,18.16,0,0,1,3.107-10.1,21.435,21.435,0,0,1,8.152-7.128L19.43,1.27A.837.837,0,0,1,19.663.134a.779.779,0,0,1,1.1.242l3.856,6.163a24.74,24.74,0,0,1,19.114,0L47.6.376A.777.777,0,0,1,48.263,0,.769.769,0,0,1,48.7.134a.837.837,0,0,1,.233,1.136L45.2,7.227a21.447,21.447,0,0,1,8.152,7.128,18.145,18.145,0,0,1,3.109,10.1c0,.426-.02.865-.062,1.343ZM44.479,13.476a2.212,2.212,0,1,0,2.136,2.208A2.177,2.177,0,0,0,44.479,13.476Zm-20.6,0a2.212,2.212,0,1,0,2.14,2.208A2.176,2.176,0,0,0,23.88,13.476Z" transform="translate(61.035 53.71)" fill="#fff"/>
  </g>
</svg>
