<svg xmlns="http://www.w3.org/2000/svg" xmlns:xlink="http://www.w3.org/1999/xlink" width="262.428" height="262.428" viewBox="0 0 262.428 262.428">
  <defs>
    <filter id="Oval" x="0" y="0" width="262.428" height="262.428" filterUnits="userSpaceOnUse">
      <feOffset dy="8" input="SourceAlpha"/>
      <feGaussianBlur stdDeviation="12" result="blur"/>
      <feFlood flood-opacity="0.078"/>
      <feComposite operator="in" in2="blur"/>
      <feComposite in="SourceGraphic"/>
    </filter>
  </defs>
  <g id="Behance" transform="translate(36 28)">
    <g transform="matrix(1, 0, 0, 1, -36, -28)" filter="url(#Oval)">
      <circle id="Oval-2" data-name="Oval" cx="95.214" cy="95.214" r="95.214" transform="translate(36 28)" fill="#105dfb"/>
    </g>
    <path id="Behance-2" data-name="Behance" d="M75.135,58.594c-.662,0-1.051-.027-1.123-.033-6.552,0-11.645-1.911-15.137-5.68a20.259,20.259,0,0,1-4.739-10.127,24.2,24.2,0,0,1-.4-5.513,30.692,30.692,0,0,1,2.63-11.21A19.713,19.713,0,0,1,62.5,18.274a20,20,0,0,1,11.878-3.625c.105,0,.211,0,.316,0,5.436,0,9.726,1.585,12.751,4.711a19.506,19.506,0,0,1,4.83,10.516,42.145,42.145,0,0,1,.448,8.655,8.36,8.36,0,0,0,0,1.187c-.135.036-24.712.037-27.514.037,0,4.045,1.3,6.943,3.867,8.611A9.43,9.43,0,0,0,74.052,49.8c.14,0,.241-.005.292-.008h.038c8.713,0,9.171-6.215,9.174-6.278H92.73C92.73,57.507,79.263,58.594,75.135,58.594Zm-1.244-34.18A9.588,9.588,0,0,0,65.177,29.3a13.741,13.741,0,0,0-1.7,4.884H83.008c0-.042.075-4.5-2.714-7.359A8.575,8.575,0,0,0,73.891,24.414ZM30.513,58.594c-.051,0-.094,0-.125,0H0V0H30.311c4.744,0,8.711,1.282,11.472,3.707,3.028,2.657,4.564,6.55,4.564,11.571,0,5.415-2.294,8.246-4.219,9.668a9.986,9.986,0,0,1-4.221,1.8,9.617,9.617,0,0,1,7.3,2.9c4,4.22,3.612,11.572,3.608,11.645,0,7.045-2.825,12.072-8.4,14.941A23.323,23.323,0,0,1,30.513,58.594ZM14.649,34.18V48.827H32.181c4.566-.077,6.882-2.4,6.882-6.91,0-7.094-6.813-7.732-6.882-7.737Zm0-24.416V24.414H28.861c2.8,0,5.32-.564,5.32-7.372,0-6.979-4.092-7.275-4.133-7.277h-15.4Zm73.241,0H63.476V4.882H87.89V9.765Z" transform="translate(48.828 65.917)" fill="#fff"/>
  </g>
</svg>
