<svg xmlns="http://www.w3.org/2000/svg" xmlns:xlink="http://www.w3.org/1999/xlink" width="208.428" height="208.428" viewBox="0 0 208.428 208.428">
  <defs>
    <filter id="Oval" x="0" y="0" width="208.428" height="208.428" filterUnits="userSpaceOnUse">
      <feOffset dy="3" input="SourceAlpha"/>
      <feGaussianBlur stdDeviation="3" result="blur"/>
      <feFlood flood-opacity="0.161"/>
      <feComposite operator="in" in2="blur"/>
      <feComposite in="SourceGraphic"/>
    </filter>
  </defs>
  <g id="Codepen" transform="translate(9 6)">
    <g transform="matrix(1, 0, 0, 1, -9, -6)" filter="url(#Oval)">
      <circle id="Oval-2" data-name="Oval" cx="95.214" cy="95.214" r="95.214" transform="translate(9 6)" fill="#444"/>
    </g>
    <path id="Codepen-2" data-name="Codepen" d="M41.163,83.007A6.83,6.83,0,0,1,37.45,81.92L3.021,59.756A6.49,6.49,0,0,1,0,54.287V29.531a6.518,6.518,0,0,1,2.883-5.379L36.758,1.176a6.883,6.883,0,0,1,7.561-.088l35.67,22.983a6.5,6.5,0,0,1,3.019,5.467V53.861a6.494,6.494,0,0,1-3.021,5.467L44.874,81.92A6.827,6.827,0,0,1,41.163,83.007ZM57.614,46.762h0L45.6,54.6V71.34l24.948-16.3L57.614,46.762Zm-33.457-.367L11.61,54.936l25.119,16.4V54.608ZM40.091,35.547l-8.132,5.539L41.168,47.1l8.4-5.491-9.472-6.064h0Zm34.044.417-8.528,5.57,8.528,5.458Zm-65.942,0v10.74l8.053-5.487ZM45.32,10.817,45.4,27.771l12.168,8.618,12.979-8.484L45.32,10.817Zm-8.8.018L11.6,27.793l12.441,8.125,12.472-8.495Z" transform="translate(53.71 53.71)" fill="#fff"/>
  </g>
</svg>
