<svg xmlns="http://www.w3.org/2000/svg" xmlns:xlink="http://www.w3.org/1999/xlink" width="262.428" height="262.428" viewBox="0 0 262.428 262.428">
  <defs>
    <filter id="Oval" x="0" y="0" width="262.428" height="262.428" filterUnits="userSpaceOnUse">
      <feOffset dy="8" input="SourceAlpha"/>
      <feGaussianBlur stdDeviation="12" result="blur"/>
      <feFlood flood-opacity="0.078"/>
      <feComposite operator="in" in2="blur"/>
      <feComposite in="SourceGraphic"/>
    </filter>
  </defs>
  <g id="Dribbble" transform="translate(36 28)">
    <g transform="matrix(1, 0, 0, 1, -36, -28)" filter="url(#Oval)">
      <circle id="Oval-2" data-name="Oval" cx="95.214" cy="95.214" r="95.214" transform="translate(36 28)" fill="#db417c"/>
    </g>
    <path id="Dribbble-2" data-name="Dribbble" d="M46.388,92.772A46.386,46.386,0,1,1,92.772,46.386,46.44,46.44,0,0,1,46.388,92.772Zm7.025-39.9-.057.02c-.024.007-.048.015-.073.024s-.044.015-.066.022l-.02.007-.018.007-.018,0C30.925,60.7,22.908,75.986,22.067,77.7a39.564,39.564,0,0,0,39.8,5.216A164.666,164.666,0,0,0,53.413,52.872ZM69.073,50.4a52.7,52.7,0,0,0-8.244.637,171.909,171.909,0,0,1,7.7,28.248A39.813,39.813,0,0,0,85.508,52.736,58.163,58.163,0,0,0,69.073,50.4ZM6.787,45.235c-.015.426-.022.812-.022,1.213a39.529,39.529,0,0,0,10.186,26.49A63.725,63.725,0,0,1,25.73,61.767,57.466,57.466,0,0,1,49.157,46.793c.379-.122.957-.3,1.562-.47-.958-2.166-2.038-4.43-3.212-6.726A147.01,147.01,0,0,1,8.055,45.246C7.332,45.246,6.918,45.239,6.787,45.235Zm60.758-.979A95.779,95.779,0,0,1,86,46.074a39.681,39.681,0,0,0-8.945-24.682c-.716.968-7.449,9.631-22.126,15.622.942,1.923,1.827,3.854,2.63,5.737.262.615.542,1.284.855,2.046A73.537,73.537,0,0,1,67.546,44.256Zm-38-33.665A39.886,39.886,0,0,0,7.6,38.333c.122,0,.331,0,.655,0A148.316,148.316,0,0,0,44.231,33.5,251.918,251.918,0,0,0,29.544,10.591ZM46.388,6.827a39.717,39.717,0,0,0-9.286,1.1,212.669,212.669,0,0,1,14.785,23.2C66,25.833,72.015,17.719,72.654,16.811A39.544,39.544,0,0,0,46.388,6.827Z" transform="translate(48.828 48.828)" fill="#fff"/>
  </g>
</svg>
