<svg xmlns="http://www.w3.org/2000/svg" xmlns:xlink="http://www.w3.org/1999/xlink" width="208.428" height="208.427" viewBox="0 0 208.428 208.427">
  <defs>
    <filter id="Oval" x="0" y="0" width="208.428" height="208.427" filterUnits="userSpaceOnUse">
      <feOffset dy="3" input="SourceAlpha"/>
      <feGaussianBlur stdDeviation="3" result="blur"/>
      <feFlood flood-opacity="0.161"/>
      <feComposite operator="in" in2="blur"/>
      <feComposite in="SourceGraphic"/>
    </filter>
  </defs>
  <g id="Group_40" data-name="Group 40" transform="translate(-379.084 -905.884)">
    <g transform="matrix(1, 0, 0, 1, 379.08, 905.88)" filter="url(#Oval)">
      <ellipse id="Oval-2" data-name="Oval" cx="95.214" cy="95.214" rx="95.214" ry="95.214" transform="translate(9 6)" fill="#323232"/>
    </g>
    <path id="Apple" d="M22.04,83.008c-5.41,0-9.364-5.028-13.269-10.63C.951,61.171-3.544,42.691,3.529,30.514a20.937,20.937,0,0,1,17.6-10.575c.07,0,.143,0,.218,0,3.066,0,5.963,1.14,8.519,2.145a15.43,15.43,0,0,0,4.849,1.407A15.755,15.755,0,0,0,39.394,22.1c2.753-1.078,6.178-2.419,9.767-2.419.462,0,.918.022,1.358.066A19.837,19.837,0,0,1,66.08,28.134a.68.68,0,0,1-.193.956l-.068.042c-1.436.882-8.593,5.745-8.5,14.924.1,11.3,9.517,15.448,10.591,15.884l.025.011.025.011a.678.678,0,0,1,.365.833l-.024.075a45.508,45.508,0,0,1-5.759,11.7C59.238,77.36,55.5,82.786,49.4,82.9l-.256,0a14.946,14.946,0,0,1-6.377-1.579l-.018-.008A15.979,15.979,0,0,0,35.8,79.657a16.967,16.967,0,0,0-7.295,1.716A16.476,16.476,0,0,1,22.35,83Q22.192,83.008,22.04,83.008ZM34.9,20.209c-.3,0-.595-.011-.886-.033a.688.688,0,0,1-.626-.589C32.709,14.5,35.281,9.449,37.916,6.419,41.018,2.815,46.2.176,50.526,0h.025a.694.694,0,0,1,.684.607A18.619,18.619,0,0,1,46.8,14.151C43.689,17.887,39.128,20.209,34.9,20.209Z" transform="translate(449.119 963.152)" fill="#fff"/>
  </g>
</svg>
