<svg xmlns="http://www.w3.org/2000/svg" xmlns:xlink="http://www.w3.org/1999/xlink" width="208.428" height="208.427" viewBox="0 0 208.428 208.427">
  <defs>
    <filter id="Oval" x="0" y="0" width="208.428" height="208.427" filterUnits="userSpaceOnUse">
      <feOffset dy="3" input="SourceAlpha"/>
      <feGaussianBlur stdDeviation="3" result="blur"/>
      <feFlood flood-opacity="0.161"/>
      <feComposite operator="in" in2="blur"/>
      <feComposite in="SourceGraphic"/>
    </filter>
  </defs>
  <g id="Group_18" data-name="Group 18" transform="translate(-1844.417 -520.884)">
    <g transform="matrix(1, 0, 0, 1, 1844.42, 520.88)" filter="url(#Oval)">
      <ellipse id="Oval-2" data-name="Oval" cx="95.214" cy="95.214" rx="95.214" ry="95.214" transform="translate(9 6)" fill="#00aef3"/>
    </g>
    <path id="link-solid" d="M51.98,29.5a24.178,24.178,0,0,1,.057,34.152c-.018.019-.038.04-.057.059L41.285,74.411A24.191,24.191,0,0,1,7.074,40.2l5.905-5.905a2.544,2.544,0,0,1,4.344,1.688,29.326,29.326,0,0,0,1.542,8.391,2.561,2.561,0,0,1-.6,2.644L16.181,49.1a11.459,11.459,0,1,0,16.1,16.308L42.977,54.714a11.456,11.456,0,0,0,0-16.206,11.922,11.922,0,0,0-1.646-1.364,2.552,2.552,0,0,1-1.106-2.006,6.339,6.339,0,0,1,1.862-4.744l3.351-3.351a2.557,2.557,0,0,1,3.276-.275A24.267,24.267,0,0,1,51.98,29.5ZM74.41,7.074a24.218,24.218,0,0,0-34.211,0L29.5,17.769c-.019.019-.04.04-.057.059A24.2,24.2,0,0,0,32.77,54.717a2.557,2.557,0,0,0,3.276-.275L39.4,51.09a6.339,6.339,0,0,0,1.862-4.744,2.552,2.552,0,0,0-1.106-2.006,11.922,11.922,0,0,1-1.646-1.364,11.456,11.456,0,0,1,0-16.206L49.2,16.077A11.459,11.459,0,1,1,65.3,32.385l-2.083,2.083a2.561,2.561,0,0,0-.6,2.644A29.327,29.327,0,0,1,64.161,45.5,2.544,2.544,0,0,0,68.5,47.19l5.905-5.905a24.217,24.217,0,0,0,0-34.211Z" transform="translate(1909.258 581.258)" fill="#fff"/>
  </g>
</svg>
