<svg xmlns="http://www.w3.org/2000/svg" xmlns:xlink="http://www.w3.org/1999/xlink" width="208" height="208" viewBox="0 0 208 208">
  <defs>
    <filter id="Oval" x="0" y="0" width="208" height="208" filterUnits="userSpaceOnUse">
      <feOffset dy="3" input="SourceAlpha"/>
      <feGaussianBlur stdDeviation="3" result="blur"/>
      <feFlood flood-opacity="0.161"/>
      <feComposite operator="in" in2="blur"/>
      <feComposite in="SourceGraphic"/>
    </filter>
  </defs>
  <g id="Group_9" data-name="Group 9" transform="translate(9 5.761)">
    <g transform="matrix(1, 0, 0, 1, -9, -5.76)" filter="url(#Oval)">
      <circle id="Oval-2" data-name="Oval" cx="95" cy="95" r="95" transform="translate(9 6)" fill="#00d45b"/>
    </g>
    <g id="call" transform="translate(52.58 52.58)">
      <g id="Group_4" data-name="Group 4">
        <path id="Path_12" data-name="Path 12" d="M80.031,57.114a49.4,49.4,0,0,1-15.515-2.471,7.091,7.091,0,0,0-6.9,1.454l-9.784,7.386C36.489,57.426,29.5,50.439,23.526,39.178l7.168-9.529a7.033,7.033,0,0,0,1.73-7.126A49.479,49.479,0,0,1,29.944,6.982,6.99,6.99,0,0,0,22.962,0H6.982A6.99,6.99,0,0,0,0,6.982,80.121,80.121,0,0,0,80.031,87.013a6.99,6.99,0,0,0,6.982-6.982V64.1A6.99,6.99,0,0,0,80.031,57.114Z" fill="#fff"/>
      </g>
    </g>
  </g>
</svg>
