<svg xmlns="http://www.w3.org/2000/svg" xmlns:xlink="http://www.w3.org/1999/xlink" width="208.428" height="208.427" viewBox="0 0 208.428 208.427">
  <defs>
    <filter id="Oval" x="0" y="0" width="208.428" height="208.427" filterUnits="userSpaceOnUse">
      <feOffset dy="3" input="SourceAlpha"/>
      <feGaussianBlur stdDeviation="3" result="blur"/>
      <feFlood flood-opacity="0.161"/>
      <feComposite operator="in" in2="blur"/>
      <feComposite in="SourceGraphic"/>
    </filter>
  </defs>
  <g id="Group_39" data-name="Group 39" transform="translate(-1243.418 -549.884)">
    <g transform="matrix(1, 0, 0, 1, 1243.42, 549.88)" filter="url(#Oval)">
      <ellipse id="Oval-2" data-name="Oval" cx="95.214" cy="95.214" rx="95.214" ry="95.214" transform="translate(9 6)" fill="#00aef3"/>
    </g>
    <path id="Skype" d="M60.049,83.008A23.249,23.249,0,0,1,49.194,80.32a40.543,40.543,0,0,1-7.249.655A39.615,39.615,0,0,1,13.951,69.542a38.706,38.706,0,0,1-10.8-35.454A22.382,22.382,0,0,1,0,22.638,22.826,22.826,0,0,1,22.959,0,23.125,23.125,0,0,1,35.174,3.474,40.606,40.606,0,0,1,41.945,2.9,39.615,39.615,0,0,1,69.94,14.336,38.67,38.67,0,0,1,80.619,50.315a22.171,22.171,0,0,1,2.388,10.055A22.826,22.826,0,0,1,60.049,83.008ZM24.389,47.867a5.872,5.872,0,0,0-4.131,1.514,4.867,4.867,0,0,0-1.652,3.687,12.349,12.349,0,0,0,2.536,7.053,18.5,18.5,0,0,0,6.519,5.7c3.717,1.945,8.485,2.931,14.174,2.931a32.644,32.644,0,0,0,12.371-2.145A18.034,18.034,0,0,0,62.25,60.6a14.693,14.693,0,0,0,2.771-8.714,13.744,13.744,0,0,0-1.611-6.873,13.41,13.41,0,0,0-4.463-4.649,28.514,28.514,0,0,0-6.774-3.05c-.437-.137-.888-.274-1.338-.406-2.295-.673-4.789-1.3-7.414-1.852-2.525-.574-4.368-1.019-5.478-1.323a17.671,17.671,0,0,1-3.186-1.217,7.079,7.079,0,0,1-2.36-1.769,3.409,3.409,0,0,1-.789-2.272c0-1.45.8-2.674,2.452-3.742a12.54,12.54,0,0,1,6.86-1.67c3.054,0,5.278.506,6.612,1.505A12.94,12.94,0,0,1,51.084,28.9,12.651,12.651,0,0,0,53.448,32a5.039,5.039,0,0,0,3.41,1.048,5.468,5.468,0,0,0,4.065-1.674A5.281,5.281,0,0,0,62.547,27.6a9.29,9.29,0,0,0-1.237-4.452,14.024,14.024,0,0,0-3.85-4.267,20.531,20.531,0,0,0-6.539-3.215,31.828,31.828,0,0,0-9.239-1.2,34.045,34.045,0,0,0-11.615,1.806,16.731,16.731,0,0,0-7.686,5.26,12.564,12.564,0,0,0-2.687,7.9,12.078,12.078,0,0,0,2.562,7.824,17.05,17.05,0,0,0,6.8,4.906.1.1,0,0,0,.033.013,58.573,58.573,0,0,0,10.342,3.05c3.03.626,5.475,1.223,7.264,1.773a10.819,10.819,0,0,1,4.223,2.3A4.756,4.756,0,0,1,52.448,53a5.72,5.72,0,0,1-2.929,4.871,14.111,14.111,0,0,1-7.976,2.048,13.811,13.811,0,0,1-5.75-1.011,8.755,8.755,0,0,1-3.32-2.529A19.827,19.827,0,0,1,30.2,52.407a8.859,8.859,0,0,0-2.32-3.342A5.29,5.29,0,0,0,24.389,47.867Z" transform="translate(1306.128 609.595)" fill="#fff"/>
  </g>
</svg>
