<svg xmlns="http://www.w3.org/2000/svg" xmlns:xlink="http://www.w3.org/1999/xlink" width="208.428" height="208.428" viewBox="0 0 208.428 208.428">
  <defs>
    <filter id="Oval" x="0" y="0" width="208.428" height="208.428" filterUnits="userSpaceOnUse">
      <feOffset dy="3" input="SourceAlpha"/>
      <feGaussianBlur stdDeviation="3" result="blur"/>
      <feFlood flood-opacity="0.161"/>
      <feComposite operator="in" in2="blur"/>
      <feComposite in="SourceGraphic"/>
    </filter>
  </defs>
  <g id="sms" transform="translate(-2064 -549)">
    <g id="Codepen" transform="translate(2073 555)">
      <g transform="matrix(1, 0, 0, 1, -9, -6)" filter="url(#Oval)">
        <circle id="Oval-2" data-name="Oval" cx="95.214" cy="95.214" r="95.214" transform="translate(9 6)" fill="#505050"/>
      </g>
    </g>
    <g id="speech-bubble" transform="translate(2116 600.167)">
      <path id="Path_118" data-name="Path 118" d="M12.542,96.023a17.37,17.37,0,0,1-5.7-.942L2.732,93.658l3.161-2.993A16.537,16.537,0,0,0,11.2,78.709,42.265,42.265,0,0,1,0,50.428c0-25.141,23.318-45.6,51.981-45.6s51.984,20.454,51.984,45.6S80.644,96.021,51.981,96.021a57.89,57.89,0,0,1-24.455-5.362C24.7,92.661,18.989,96.023,12.542,96.023ZM26.906,84.453l1.517.768A52.419,52.419,0,0,0,51.98,90.736c25.749,0,46.7-18.082,46.7-40.306S77.728,10.121,51.98,10.121,5.284,28.2,5.284,50.428A37.129,37.129,0,0,0,15.757,75.854l.687.728.032,1a21.868,21.868,0,0,1-3.723,13.151c6.122-.1,11.749-4.359,12.825-5.219Z" transform="translate(0 0)" fill="#fff"/>
      <path id="Path_119" data-name="Path 119" d="M22.05,54.743a19.977,19.977,0,0,1-4.729-.457,8.433,8.433,0,0,1-2.514-.932c-.116-.116-.16-.382-.132-.8a8.388,8.388,0,0,1,.2-1.3,5.966,5.966,0,0,1,.39-1.191c.159-.346.309-.507.456-.477q1.128.391,2.45.759a12.849,12.849,0,0,0,3.361.367,9.139,9.139,0,0,0,3.537-.607,2.181,2.181,0,0,0,1.454-2.169,2.789,2.789,0,0,0-.956-2.191,11.913,11.913,0,0,0-3.427-1.8A24.47,24.47,0,0,1,19.6,42.794a9.665,9.665,0,0,1-2.1-1.475A6.093,6.093,0,0,1,16.064,39.3a6.782,6.782,0,0,1-.522-2.777,6.264,6.264,0,0,1,.5-2.473,5.185,5.185,0,0,1,1.54-2.017,7.821,7.821,0,0,1,2.668-1.344,13.316,13.316,0,0,1,3.883-.5q1.473,0,2.45.065a16.06,16.06,0,0,1,1.606.174,7.215,7.215,0,0,1,1.019.239c.26.087.506.159.737.217.2.086.3.34.3.759a5.778,5.778,0,0,1-.174,1.345A4.987,4.987,0,0,1,29.6,34.25q-.305.543-.608.456-.737-.216-2.017-.476a12.43,12.43,0,0,0-2.494-.26,6.016,6.016,0,0,0-3.4.694,2.2,2.2,0,0,0-.933,1.865,2.375,2.375,0,0,0,1.041,2.017,13.284,13.284,0,0,0,3.252,1.54,14.052,14.052,0,0,1,5.183,3.188,6.408,6.408,0,0,1,1.671,4.533,6.679,6.679,0,0,1-.78,3.386,5.854,5.854,0,0,1-2.083,2.122,9.043,9.043,0,0,1-2.971,1.108A18.115,18.115,0,0,1,22.05,54.743Z" transform="translate(4.717 8.156)" fill="#fff"/>
      <path id="Path_120" data-name="Path 120" d="M48.35,54.378a1.654,1.654,0,0,1-1.191-.3,1.752,1.752,0,0,1-.282-1.172V37.721q-1.735,2.819-2.671,4.359c-.624,1.028-1.074,1.78-1.365,2.257s-.464.759-.523.845a.441.441,0,0,0-.083.176c-.259.433-.441.715-.542.846a.772.772,0,0,1-.63.194h-.694a1,1,0,0,1-.737-.194,5.208,5.208,0,0,1-.521-.846l-4.425-7.546V53.166a1.722,1.722,0,0,1-.2.891q-.194.325-1.019.325h-1.82a2.677,2.677,0,0,1-1.064-.2c-.3-.13-.456-.555-.456-1.281V32.084a1.515,1.515,0,0,1,.325-1.15,1.383,1.383,0,0,1,.933-.282h2.169a2.161,2.161,0,0,1,.8.13,1.66,1.66,0,0,1,.673.65l5.767,9.2L46.57,31.52a1.575,1.575,0,0,1,.632-.673,1.514,1.514,0,0,1,.715-.194H50.3c.55,0,.866.115.956.346a3.5,3.5,0,0,1,.13,1.129V53.119a2.008,2.008,0,0,1-.173.957c-.116.2-.449.3-1,.3Z" transform="translate(9.69 8.304)" fill="#fff"/>
      <path id="Path_121" data-name="Path 121" d="M56.644,54.743a19.97,19.97,0,0,1-4.729-.457,8.418,8.418,0,0,1-2.514-.932c-.116-.116-.16-.382-.132-.8a8.224,8.224,0,0,1,.194-1.3,5.883,5.883,0,0,1,.39-1.191c.157-.348.308-.507.456-.477q1.128.391,2.45.759a12.779,12.779,0,0,0,3.361.367,9.144,9.144,0,0,0,3.537-.607,2.184,2.184,0,0,0,1.455-2.169,2.786,2.786,0,0,0-.957-2.191,11.925,11.925,0,0,0-3.428-1.8,24.6,24.6,0,0,1-2.537-1.152,9.706,9.706,0,0,1-2.105-1.475,6.109,6.109,0,0,1-1.43-2.015,6.765,6.765,0,0,1-.522-2.777,6.286,6.286,0,0,1,.5-2.473,5.2,5.2,0,0,1,1.541-2.017,7.814,7.814,0,0,1,2.667-1.344,13.335,13.335,0,0,1,3.883-.5q1.475,0,2.45.065a16.137,16.137,0,0,1,1.607.174,7.306,7.306,0,0,1,1.019.239c.259.086.506.159.739.217.2.086.3.34.3.759a5.713,5.713,0,0,1-.176,1.345,4.986,4.986,0,0,1-.473,1.257q-.305.543-.609.456c-.49-.144-1.166-.3-2.015-.476a12.44,12.44,0,0,0-2.494-.26,6.013,6.013,0,0,0-3.4.694,2.205,2.205,0,0,0-.934,1.865,2.376,2.376,0,0,0,1.043,2.017,13.259,13.259,0,0,0,3.252,1.54,14.063,14.063,0,0,1,5.183,3.188,6.408,6.408,0,0,1,1.671,4.533,6.679,6.679,0,0,1-.78,3.386,5.855,5.855,0,0,1-2.083,2.122,9.043,9.043,0,0,1-2.971,1.108A18.122,18.122,0,0,1,56.644,54.743Z" transform="translate(15.843 8.156)" fill="#fff"/>
    </g>
  </g>
</svg>
