<svg xmlns="http://www.w3.org/2000/svg" xmlns:xlink="http://www.w3.org/1999/xlink" width="208.428" height="208.428" viewBox="0 0 208.428 208.428">
  <defs>
    <filter id="Oval" x="0" y="0" width="208.428" height="208.428" filterUnits="userSpaceOnUse">
      <feOffset dy="3" input="SourceAlpha"/>
      <feGaussianBlur stdDeviation="3" result="blur"/>
      <feFlood flood-opacity="0.161"/>
      <feComposite operator="in" in2="blur"/>
      <feComposite in="SourceGraphic"/>
    </filter>
  </defs>
  <g id="Snapchat" transform="translate(9 6)">
    <g transform="matrix(1, 0, 0, 1, -9, -6)" filter="url(#Oval)">
      <ellipse id="Oval-2" data-name="Oval" cx="95.214" cy="95.214" rx="95.214" ry="95.214" transform="translate(9 6)" fill="#fffc00"/>
    </g>
    <g id="Snapchat-2" data-name="Snapchat" transform="translate(51.269 53.797)">
      <path id="Shape" d="M84.558,62.842C73.61,60.9,68.712,49.557,68.136,48.213v-.149a3.562,3.562,0,0,1-.432-2.836c.576-1.343,3.025-2.239,4.61-2.687a9.715,9.715,0,0,0,1.152-.448c3.025-1.343,4.61-2.985,4.61-4.926a4.037,4.037,0,0,0-2.881-3.582,4.465,4.465,0,0,0-2.017-.448,5.472,5.472,0,0,0-1.873.448,10.577,10.577,0,0,1-3.457,1.045,1.771,1.771,0,0,1-.864-.149,4.762,4.762,0,0,0,.144-1.493v-.3c.288-6.12.864-13.733-1.152-18.211A23.438,23.438,0,0,0,44.224,0H42.495A23.158,23.158,0,0,0,20.887,14.479C18.871,18.957,19.3,26.57,19.735,32.69a7.526,7.526,0,0,1,.144,1.791c-.288,0-.72.149-1.152.149a7.914,7.914,0,0,1-3.745-1.045c-2.017-.9-5.906.448-6.338,3.135-.288,1.493.288,3.582,4.61,5.374a6.54,6.54,0,0,0,1.3.448c1.44.448,3.889,1.343,4.466,2.687a3.614,3.614,0,0,1-.432,2.836c-.288.448-5.33,12.539-16.71,14.479A2.546,2.546,0,0,0,0,65.081a2.213,2.213,0,0,0,.288,1.045c.864,2.388,4.61,3.881,11.38,5.075.144.448.288,1.343.432,1.791.144.6.288,1.343.432,2.09a2.487,2.487,0,0,0,2.593,1.94,10.923,10.923,0,0,0,2.017-.3,17.144,17.144,0,0,1,4.466-.6,12.646,12.646,0,0,1,3.313.448c2.017.3,3.889,1.642,5.906,3.135a16.678,16.678,0,0,0,11.38,3.881h1.008A22.615,22.615,0,0,0,56.18,79.709c2.017-1.343,3.889-2.836,5.906-3.135a22.763,22.763,0,0,1,3.169-.3,19.709,19.709,0,0,1,4.466.448,14.5,14.5,0,0,0,2.161.3,2.485,2.485,0,0,0,2.449-1.94c.144-.746.288-1.343.432-2.09.144-.3.288-1.194.432-1.642,6.77-1.045,10.083-2.687,11.092-4.926a2.846,2.846,0,0,0,.288-1.045A2.546,2.546,0,0,0,84.558,62.842Z" transform="translate(0 0)"/>
      <path id="Path" d="M70.873,65.379c-1.729.149-2.017,1.94-2.449,3.881-.144.448-.288,1.045-.432,1.642a6.392,6.392,0,0,1-1.44-.149,23.506,23.506,0,0,0-5.042-.6,31.768,31.768,0,0,0-3.6.3c-2.593.448-4.9,2.09-7.058,3.732a17.62,17.62,0,0,1-11.092,3.433h-.72c-4.754,0-7.058-1.493-9.8-3.433-2.161-1.642-4.322-3.284-7.058-3.732a29.3,29.3,0,0,0-3.6-.3,20.368,20.368,0,0,0-5.042.6,6.147,6.147,0,0,1-1.44.3l-.432-1.791c-.432-1.94-.72-3.732-2.449-4.03C2.881,64.334.72,62.991,0,62.394c11.812-2.538,17.286-14.479,18.006-16.121a6.772,6.772,0,0,0,.432-5.224c-1.152-2.687-4.322-3.732-6.338-4.329a2.027,2.027,0,0,1-1.008-.3c-2.449-1.045-2.881-1.94-2.881-2.089,0-.448,1.008-1.045,1.873-1.045h.432a11,11,0,0,0,4.9,1.343,4.938,4.938,0,0,0,3.6-1.343,1.379,1.379,0,0,0,.432-1.045c0-.9-.144-1.791-.144-2.687-.432-5.821-.864-12.986.864-16.867A20.331,20.331,0,0,1,39.181,0h1.584A20.719,20.719,0,0,1,59.924,12.389c1.585,3.881,1.152,11.046.864,16.867v.3c0,.9-.144,1.642-.144,2.388a1.73,1.73,0,0,0,.432,1.194,5.146,5.146,0,0,0,3.457,1.343,15.615,15.615,0,0,0,4.61-1.343,2.051,2.051,0,0,1,1.585.149c.72.3,1.008.746,1.008.9,0,.3-.576,1.194-2.881,2.09a9.715,9.715,0,0,1-1.152.448c-1.873.6-5.042,1.642-6.194,4.329-.72,1.493-.432,3.284.432,5.224.576,1.493,5.906,13.733,17.862,16.27C79.083,63.14,77.067,64.334,70.873,65.379Z" transform="translate(3.457 2.985)" fill="#fff"/>
    </g>
  </g>
</svg>
