<svg xmlns="http://www.w3.org/2000/svg" xmlns:xlink="http://www.w3.org/1999/xlink" width="208.428" height="208.428" viewBox="0 0 208.428 208.428">
  <defs>
    <filter id="Oval" x="0" y="0" width="208.428" height="208.428" filterUnits="userSpaceOnUse">
      <feOffset dy="3" input="SourceAlpha"/>
      <feGaussianBlur stdDeviation="3" result="blur"/>
      <feFlood flood-opacity="0.161"/>
      <feComposite operator="in" in2="blur"/>
      <feComposite in="SourceGraphic"/>
    </filter>
  </defs>
  <g id="Spotify" transform="translate(9 6)">
    <g transform="matrix(1, 0, 0, 1, -9, -6)" filter="url(#Oval)">
      <ellipse id="Oval-2" data-name="Oval" cx="95.214" cy="95.214" rx="95.214" ry="95.214" transform="translate(9 6)" fill="#2ab858"/>
    </g>
    <path id="Spotify-2" data-name="Spotify" d="M41.488,83.008A41.5,41.5,0,1,1,83.007,41.491,41.55,41.55,0,0,1,41.488,83.008Zm-6.4-22.665a45.318,45.318,0,0,1,21.777,5.592,2.128,2.128,0,0,0,2.885-.828,4.249,4.249,0,0,0,.176-2.479,2.951,2.951,0,0,0-1-1.978,49.379,49.379,0,0,0-23.84-6.122,50.372,50.372,0,0,0-14.656,2.206c-1,.33-1.762,3.021-1.393,4.234a2.109,2.109,0,0,0,2.03,1.488,2.227,2.227,0,0,0,.637-.1A44.9,44.9,0,0,1,35.09,60.343Zm0-14.73a56.5,56.5,0,0,1,26.349,6.412,2.643,2.643,0,0,0,1.2.3c.58,0,1.5-1.032,2.285-2.569a2.6,2.6,0,0,0,.182-2,2.529,2.529,0,0,0-1.281-1.494,62.6,62.6,0,0,0-45.206-4.81c-1.315.358-2.2,2.911-1.815,4.37a2.585,2.585,0,0,0,3.179,1.817A56.5,56.5,0,0,1,35.09,45.613Zm0-16.216a69.248,69.248,0,0,1,31.271,7.35,3.167,3.167,0,0,0,1.34.3,3.5,3.5,0,0,0,2.755-2.065,3.066,3.066,0,0,0-1.386-4.118,75.438,75.438,0,0,0-33.98-7.978,77.349,77.349,0,0,0-18.43,2.246,3.5,3.5,0,0,0-2.21,4.111,3.047,3.047,0,0,0,2.964,2.312,3.084,3.084,0,0,0,.747-.092A71.048,71.048,0,0,1,35.09,29.4Z" transform="translate(53.71 53.71)" fill="#fff"/>
  </g>
</svg>
