<svg xmlns="http://www.w3.org/2000/svg" xmlns:xlink="http://www.w3.org/1999/xlink" width="208.428" height="208.428" viewBox="0 0 208.428 208.428">
  <defs>
    <filter id="Oval" x="0" y="0" width="208.428" height="208.428" filterUnits="userSpaceOnUse">
      <feOffset dy="3" input="SourceAlpha"/>
      <feGaussianBlur stdDeviation="3" result="blur"/>
      <feFlood flood-opacity="0.161"/>
      <feComposite operator="in" in2="blur"/>
      <feComposite in="SourceGraphic"/>
    </filter>
  </defs>
  <g id="Twitter" transform="translate(9 6)">
    <g transform="matrix(1, 0, 0, 1, -9, -6)" filter="url(#Oval)">
      <circle id="Oval-2" data-name="Oval" cx="95.214" cy="95.214" r="95.214" transform="translate(9 6)" fill="#2aa3ef"/>
    </g>
    <path id="Twitter-2" data-name="Twitter" d="M78.124,7.513a32.151,32.151,0,0,1-9.206,2.526,16.075,16.075,0,0,0,7.046-8.865A32.031,32.031,0,0,1,65.784,5.06,16.037,16.037,0,0,0,38.056,16.024a16.2,16.2,0,0,0,.418,3.655A45.5,45.5,0,0,1,5.442,2.934,16.041,16.041,0,0,0,10.4,24.327a15.9,15.9,0,0,1-7.257-2v.2A16.031,16.031,0,0,0,16,38.238a16,16,0,0,1-4.224.562,15.766,15.766,0,0,1-3.015-.29A16.053,16.053,0,0,0,23.734,49.642,32.2,32.2,0,0,1,3.824,56.5,32.305,32.305,0,0,1,0,56.276a45.357,45.357,0,0,0,24.571,7.2c29.479,0,45.6-24.417,45.6-45.593,0-.7-.018-1.383-.046-2.072a32.576,32.576,0,0,0,8-8.293v0Z" transform="translate(56.152 63.476)" fill="#fff"/>
  </g>
</svg>
