<svg xmlns="http://www.w3.org/2000/svg" xmlns:xlink="http://www.w3.org/1999/xlink" width="208.428" height="208.427" viewBox="0 0 208.428 208.427">
  <defs>
    <filter id="Oval" x="0" y="0" width="208.428" height="208.427" filterUnits="userSpaceOnUse">
      <feOffset dy="3" input="SourceAlpha"/>
      <feGaussianBlur stdDeviation="3" result="blur"/>
      <feFlood flood-opacity="0.161"/>
      <feComposite operator="in" in2="blur"/>
      <feComposite in="SourceGraphic"/>
    </filter>
  </defs>
  <g id="Group_17" data-name="Group 17" transform="translate(-1819 -862)">
    <g transform="matrix(1, 0, 0, 1, 1819, 862)" filter="url(#Oval)">
      <ellipse id="Oval-2" data-name="Oval" cx="95.214" cy="95.214" rx="95.214" ry="95.214" transform="translate(9 6)" fill="#fff"/>
    </g>
    <g id="Group_15" data-name="Group 15" transform="translate(191.583 -25.459)">
      <path id="globe" d="M75.432,42.073C72.182,22.055,64.515,8,55.593,8S39,22.055,35.755,42.073ZM34.073,63.593a140.506,140.506,0,0,0,.74,14.347H76.351a140.506,140.506,0,0,0,.74-14.347,140.506,140.506,0,0,0-.74-14.347H34.813A140.506,140.506,0,0,0,34.073,63.593Zm72.787-21.52A55.711,55.711,0,0,0,71.442,10.331c5.47,7.577,9.236,18.987,11.208,31.742ZM39.722,10.331a55.673,55.673,0,0,0-35.4,31.742h24.21c1.95-12.755,5.716-24.165,11.186-31.742Zm69.536,38.915H83.547c.471,4.707.74,9.527.74,14.347s-.269,9.639-.74,14.347h25.689a55.114,55.114,0,0,0,1.928-14.347,56.077,56.077,0,0,0-1.905-14.347ZM26.9,63.593c0-4.82.269-9.639.74-14.347H1.928a54.347,54.347,0,0,0,0,28.693H27.617C27.169,73.232,26.9,68.413,26.9,63.593Zm8.855,21.52c3.25,20.018,10.917,34.073,19.839,34.073s16.588-14.055,19.839-34.073Zm35.71,31.742a55.764,55.764,0,0,0,35.418-31.742H82.673C80.7,97.868,76.934,109.278,71.464,116.855ZM4.326,85.113a55.711,55.711,0,0,0,35.418,31.742c-5.47-7.577-9.236-18.987-11.208-31.742H4.326Z" transform="translate(1676.417 925.459)"/>
    </g>
  </g>
</svg>
