<svg xmlns="http://www.w3.org/2000/svg" xmlns:xlink="http://www.w3.org/1999/xlink" width="209" height="208" viewBox="0 0 209 208">
  <defs>
    <filter id="Oval" x="0" y="0" width="209" height="208" filterUnits="userSpaceOnUse">
      <feOffset dy="3" input="SourceAlpha"/>
      <feGaussianBlur stdDeviation="3" result="blur"/>
      <feFlood flood-opacity="0.161"/>
      <feComposite operator="in" in2="blur"/>
      <feComposite in="SourceGraphic"/>
    </filter>
  </defs>
  <g id="Group_11" data-name="Group 11" transform="translate(9.259 5.761)">
    <g id="Group_10" data-name="Group 10" transform="translate(0 0)">
      <g transform="matrix(1, 0, 0, 1, -9.26, -5.76)" filter="url(#Oval)">
        <ellipse id="Oval-2" data-name="Oval" cx="95.5" cy="95" rx="95.5" ry="95" transform="translate(9 6)" fill="#009f45"/>
      </g>
      <path id="whatsapp" d="M88.643,15.109A51.53,51.53,0,0,0,7.559,77.27L.25,103.966,27.561,96.8a51.463,51.463,0,0,0,24.619,6.271H52.2A51.54,51.54,0,0,0,88.643,15.109ZM52.2,94.372h-.018A42.767,42.767,0,0,1,30.389,88.4l-1.563-.928L12.619,91.727l4.326-15.8-1.018-1.62A42.82,42.82,0,1,1,52.2,94.372ZM75.688,62.3c-1.287-.645-7.616-3.758-8.8-4.188s-2.038-.643-2.9.645-3.325,4.188-4.076,5.047-1.5.967-2.789.322a35.159,35.159,0,0,1-10.352-6.389,38.829,38.829,0,0,1-7.161-8.917c-.75-1.289-.006-1.919.565-2.627a36.413,36.413,0,0,0,3.218-4.4,2.368,2.368,0,0,0-.108-2.255c-.321-.644-2.9-6.98-3.968-9.558-1.046-2.509-2.106-2.17-2.9-2.21-.75-.037-1.609-.045-2.467-.045a4.728,4.728,0,0,0-3.433,1.611,14.438,14.438,0,0,0-4.5,10.739c0,6.336,4.613,12.457,5.256,13.316s9.077,13.861,21.99,19.436a73.679,73.679,0,0,0,7.339,2.712,17.647,17.647,0,0,0,8.108.51c2.474-.37,7.615-3.114,8.689-6.121s1.072-5.584.75-6.122-1.18-.859-2.467-1.5Zm0,0" transform="translate(43.174 44.103)" fill="#fff" fill-rule="evenodd"/>
    </g>
  </g>
</svg>
