<svg xmlns="http://www.w3.org/2000/svg" width="98.725" height="98.728" viewBox="0 0 98.725 98.728">
  <path id="qr" d="M62.178,97.4l-.013.017h.013ZM55.083,62.138v-.013h-.017Zm14.089,42.341V97.414h-7q-.01,3.532-.02,7.065Zm-7.014.017v-.017h-.017ZM48.015,55.126H26.841v6.988H19.8V55.133H12.785V69.165H33.949V62.178h7.045v6.981H55.063V62.134H48.015Zm7.048,7.011h.017l-.017-.017ZM62.141,104.5h.017l-.017-.017ZM26.911,97.4H33.9V90.413H26.911ZM55.079,55.123v7l7.065.02V55.126H55.079ZM48.015,12.792H12.8V48H48.011V12.792ZM40.94,40.94H19.84v-21.1h21.1ZM33.9,26.888H26.908v6.988H33.9ZM62.171,40.963h7v-7H55.123V48h7.048V40.963ZM62.178,97.4h-.017v.017ZM12.8,111.513H48.011V76.3H12.8Zm7.058-28.158h21.1v21.1h-21.1v-21.1ZM76.287,111.5H111.5V76.29H76.287Zm7.078-28.148h21.1v21.1h-21.1ZM90.42,97.4h6.988V90.413H90.42ZM55.13,111.5h7.011V104.5H55.13ZM90.386,19.816V19.8h-.013v.017ZM76.274,48.025h-.017v.017h.017ZM62.144,62.141v.017h.017v-.017Zm49.363-35.314V19.813H104.5v7.014Zm-14.066,7.1v-.017h-.017v.017Zm7.041,28.225h.013v-.017h-.013ZM97.441,33.929q-.01,3.522-.017,7.041H90.37v7.058H83.328V33.915h14.1V19.82H90.383v7.008H83.312V19.82H69.179V12.785H55.13V19.84h7.041v7.045H76.264V27.6q.005,10.215.01,20.433,3.522.01,7.041.013v7.041q-3.522.01-7.041.017-.01,3.512-.02,7.024,3.532.01,7.061.017l.013-7.041H90.37v7.058H83.328v7.011h21.154V62.161H97.451V55.09H90.383V48.048h7.058V40.99H104.5V62.144h7.011V33.936H97.441ZM76.257,55.083V55.1h.013v-.017Zm7.055,7.058v.017h.017v-.013A.025.025,0,0,0,83.312,62.141ZM83.328,19.8h-.013v.017h.013Zm7.041-7.011H83.328V19.8H90.37ZM104.5,19.8l-.013.013h.017V19.8ZM69.246,48.042v7.041h7.011V48.042H69.246ZM62.161,62.154V83.335H55.14V97.4h7.021V90.349h7.061V69.175h7.011V62.138c-.235,0-.466.01-.7.01Q68.848,62.153,62.161,62.154Zm14.072-.034v.017h.017v-.013a.025.025,0,0,0-.017,0Zm28.249-49.329H97.441V19.8q3.522,0,7.041,0ZM104.5,19.8h-.013v.017Zm-7.071,0v.017h.017Zm0,0,.017.017V19.8Z" transform="translate(-12.785 -12.785)" fill="#fff"/>
</svg>
