<svg xmlns="http://www.w3.org/2000/svg" width="127.211" height="109.589" viewBox="0 0 127.211 109.589">
  <g id="Share_Social_Networks.fb221d5" transform="translate(-6.24 -9.185)">
    <path id="Path_123" data-name="Path 123" d="M42.77,9.185a36.53,36.53,0,1,0,9.418,71.788A44.761,44.761,0,0,1,78.994,41.224,36.516,36.516,0,0,0,42.77,9.185Zm8.473,36.524H45.8V65.4H37.663V45.709H33.585V38.914h4.078v-4.06c0-5.541,2.3-8.826,8.832-8.826h5.427v6.782h-3.4c-2.54,0-2.708.939-2.708,2.717L45.8,38.914h6.16Z" transform="translate(0 0)" fill="#fff"/>
    <path id="Path_124" data-name="Path 124" d="M60.87,21.4A36.53,36.53,0,1,0,97.4,57.925,36.531,36.531,0,0,0,60.87,21.4ZM78.2,58.828A18.415,18.415,0,0,1,69.319,70.2c-9.765,5.541-23.976,4.736-31.1-5.334,4.676,3.671,11.605,4.479,16.751-.634-3.372,0-4.242-2.525-1.571-3.886-2.531-.027-4.141-.826-5.083-2.277-.359-.55-.362-.592.221-1.014a4.767,4.767,0,0,1,2.423-.742c-2.618-.751-4.221-2.118-4.775-3.955-.183-.607-.212-.577.407-.733a11.5,11.5,0,0,1,2.079-.269c-2.058-1.248-3.288-2.776-3.6-4.467-.3-1.6.009-1.188,1.2-.73,5.34,2.043,10.666,4.239,13.822,7.488a23.771,23.771,0,0,1,5.26-9.583c1.523-1.586,2.307-2.088,1.412-.344a9.323,9.323,0,0,1,1.4-.96c2.468-1.164,2.292-.188.592.856,4.637-1.66,4.476.455-.428,1.5a9.849,9.849,0,0,1,9.5,8.057c.171.751-.033.679.736.817a9.794,9.794,0,0,0,4.748-.206c-.165,1.125-1.648,1.852-3.964,2.337-.859.177-1.032.132-.006.362a15.809,15.809,0,0,0,4.18.287A6.929,6.929,0,0,1,78.2,58.828Z" transform="translate(36.051 24.32)" fill="#fff"/>
  </g>
</svg>
