<?xml version="1.0" encoding="utf-8"?>
<!-- Generator: Adobe Illustrator 17.0.0, SVG Export Plug-In . SVG Version: 6.00 Build 0)  -->
<!DOCTYPE svg PUBLIC "-//W3C//DTD SVG 1.1//EN" "http://www.w3.org/Graphics/SVG/1.1/DTD/svg11.dtd">
<svg version="1.1" id="Capa_1" xmlns="http://www.w3.org/2000/svg" xmlns:xlink="http://www.w3.org/1999/xlink" x="0px" y="0px"
	 width="55px" height="55px" viewBox="0 0 55 55" enable-background="new 0 0 55 55" xml:space="preserve">
<g>
	<g>
		<g>
			<path fill="#FBFAFF" d="M25.804,36.847c0.645-0.024,1.147-0.255,1.62-0.559c1.245-0.799,2.225-1.878,3.117-3.034
				c2.226-2.884,4.001-6.015,5.068-9.516c0.321-1.053,0.555-2.128,0.378-3.246c-0.097-0.611-0.375-1.086-0.934-1.394
				c-0.661-0.364-1.31-0.749-1.96-1.133c-0.281-0.166-0.505-0.134-0.67,0.153c-0.728,1.261-1.454,2.523-2.178,3.787
				c-0.159,0.277-0.107,0.5,0.185,0.663c0.509,0.283,1.012,0.576,1.519,0.864c0.482,0.274,0.556,0.496,0.323,1.008
				c-1.141,2.501-2.531,4.859-4.115,7.104c-0.286,0.405-0.556,0.454-0.981,0.204c-0.514-0.302-1.031-0.597-1.543-0.901
				c-0.287-0.171-0.5-0.108-0.663,0.175c-0.72,1.251-1.439,2.502-2.162,3.751c-0.164,0.283-0.121,0.501,0.167,0.665
				c0.724,0.414,1.447,0.83,2.17,1.245C25.372,36.812,25.622,36.837,25.804,36.847z"/>
		</g>
		<g>
			<path fill="#FBFAFF" d="M17.631,17.88v-3.113c0.001-0.581,0.232-1.097,0.613-1.479c0.382-0.38,0.898-0.612,1.479-0.613h18.432
				c0.581,0.001,1.097,0.232,1.479,0.613c0.38,0.382,0.612,0.898,0.613,1.479v25.466c-0.001,0.581-0.232,1.097-0.613,1.479
				c-0.382,0.38-0.898,0.612-1.479,0.613H19.722c-0.581-0.001-1.097-0.232-1.479-0.613c-0.38-0.382-0.612-0.898-0.613-1.479v-3.791
				h-2.091l0,3.791c-0.001,1.152,0.47,2.204,1.225,2.958c0.754,0.755,1.806,1.226,2.958,1.225h18.432
				c1.152,0.001,2.204-0.47,2.958-1.225c0.755-0.754,1.226-1.806,1.225-2.958V14.767c0.001-1.152-0.47-2.204-1.225-2.958
				c-0.754-0.755-1.806-1.226-2.958-1.225H19.722c-1.152-0.001-2.204,0.47-2.958,1.225c-0.755,0.754-1.226,1.806-1.225,2.958v3.113
				H17.631L17.631,17.88z"/>
			<path fill="#FBFAFF" d="M13.709,19.71h6.013c0.578,0,1.046-0.468,1.046-1.046c0-0.578-0.468-1.046-1.046-1.046h-6.013
				c-0.578,0-1.046,0.468-1.046,1.046C12.663,19.242,13.131,19.71,13.709,19.71"/>
			<path fill="#FBFAFF" d="M13.709,37.662h6.013c0.578,0,1.046-0.468,1.046-1.046c0-0.578-0.468-1.046-1.046-1.046h-6.013
				c-0.578,0-1.046,0.468-1.046,1.046C12.663,37.194,13.131,37.662,13.709,37.662"/>
			<path fill="#FBFAFF" d="M13.709,31.678h6.013c0.578,0,1.046-0.468,1.046-1.046c0-0.578-0.468-1.046-1.046-1.046h-6.013
				c-0.578,0-1.046,0.468-1.046,1.046C12.663,31.21,13.131,31.678,13.709,31.678"/>
			<path fill="#FBFAFF" d="M13.709,25.694h6.013c0.578,0,1.046-0.468,1.046-1.046c0-0.578-0.468-1.046-1.046-1.046h-6.013
				c-0.578,0-1.046,0.468-1.046,1.046C12.663,25.226,13.131,25.694,13.709,25.694"/>
		</g>
	</g>
</g>
</svg>
